<svg width="89" height="32" viewBox="0 0 89 32" fill="none" xmlns="http://www.w3.org/2000/svg">
<g clip-path="url(#clip0_1827_2479)">
<path fill-rule="evenodd" clip-rule="evenodd" d="M4.27487 10.2462C5.48161 9.62317 6.04135 7.78249 5.53219 5.87741C4.97009 3.77422 3.31809 2.38898 1.84235 2.78339C0.366599 3.1778 -0.374059 5.2025 0.18804 7.30569C0.696705 9.20895 2.0979 10.5243 3.45333 10.4649L7.15952 25.6139C7.18774 25.7299 7.32886 25.7927 7.4637 25.755L8.43582 25.4947C8.57694 25.4571 8.66788 25.3317 8.63338 25.2188L4.27487 10.2462Z" fill="#0EDB17"/>
<path d="M25.6519 25.1876L32.071 2.86956C32.1024 2.7598 32.2215 2.69395 32.3407 2.72844C32.4567 2.7598 32.5288 2.87583 32.5006 2.98558L26.9125 25.5262C26.8843 25.6423 26.762 25.7081 26.6428 25.6768L25.8118 25.4541C25.6926 25.4196 25.6205 25.3004 25.6519 25.1876Z" fill="#0EDB17"/>
<path d="M26.9217 25.5294L33.3409 3.21135C33.3722 3.1016 33.4914 3.03574 33.6105 3.07024C33.7266 3.1016 33.7987 3.21762 33.7705 3.32738L28.1792 25.868C28.151 25.9841 28.0287 26.0499 27.9095 26.0185L27.0785 25.7959C26.9594 25.7614 26.8872 25.6422 26.9217 25.5294Z" fill="#0EDB17"/>
<path d="M17.6272 0C10.2642 0 4.29346 9.16929 4.29346 20.4772C4.29346 26.8431 7.15964 32.0016 10.6938 32.0016C13.5505 32.0016 15.9714 28.6274 16.793 23.9706C17.0659 23.9894 17.345 24.002 17.6272 24.002C17.9094 24.002 18.1885 23.9894 18.4613 23.9706C19.2829 28.6274 21.7038 32.0016 24.5606 32.0016C28.0947 32.0016 30.9609 26.8431 30.9609 20.4772C30.9609 9.16615 24.9902 0 17.6272 0Z" fill="#00986A"/>
<path d="M14.071 13.0203C14.5612 13.0203 14.9585 12.5023 14.9585 11.8632C14.9585 11.2241 14.5612 10.7061 14.071 10.7061C13.5809 10.7061 13.1836 11.2241 13.1836 11.8632C13.1836 12.5023 13.5809 13.0203 14.071 13.0203Z" fill="white"/>
<path d="M21.1834 13.0203C21.6735 13.0203 22.0708 12.5023 22.0708 11.8632C22.0708 11.2241 21.6735 10.7061 21.1834 10.7061C20.6932 10.7061 20.2959 11.2241 20.2959 11.8632C20.2959 12.5023 20.6932 13.0203 21.1834 13.0203Z" fill="white"/>
<path d="M17.6269 18.5265C14.6165 18.5265 11.998 17.4635 10.9538 15.814C10.7311 15.4628 10.8346 14.9987 11.1858 14.776C11.537 14.5534 12.0011 14.6569 12.2238 15.0081C12.9733 16.1934 15.1966 17.0213 17.6269 17.0213C20.0572 17.0213 22.2774 16.1934 23.03 15.0081C23.2526 14.6569 23.7167 14.5534 24.068 14.776C24.4192 14.9987 24.5227 15.4628 24.3 15.814C23.2558 17.4635 20.6373 18.5265 17.6269 18.5265Z" fill="white"/>
<path d="M41.9739 28.494C42.0805 28.0393 42.1652 27.6599 42.2279 27.3589C42.2906 27.0578 42.3439 26.7881 42.3878 26.5467C42.4317 26.3052 42.4788 26.0669 42.5289 25.8348C42.5791 25.6028 42.6418 25.3237 42.7234 25.0038C42.8143 24.6118 42.9554 24.3516 43.153 24.2324C43.3505 24.1101 43.5418 24.0819 43.73 24.1446C43.9181 24.2073 44.0749 24.3359 44.2004 24.5272C44.3258 24.7185 44.3666 24.9317 44.3227 25.1637C44.2505 25.4962 44.1784 25.8536 44.1 26.2456C44.0247 26.6345 43.9369 27.0265 43.8397 27.4184C43.7425 27.8136 43.6328 28.193 43.5167 28.5599C43.4007 28.9268 43.269 29.2529 43.1216 29.5383C42.9742 29.8237 42.808 30.0557 42.6261 30.2282C42.4411 30.4038 42.2404 30.4885 42.0147 30.4885C41.8171 30.4885 41.6446 30.4446 41.4972 30.3536C41.3498 30.2658 41.2213 30.1372 41.1084 29.971C40.9955 29.8048 40.8951 29.601 40.8073 29.3595C40.7164 29.1181 40.638 28.8453 40.5659 28.5411C40.4843 28.8264 40.3997 29.0899 40.3119 29.3313C40.2209 29.5728 40.1206 29.786 40.0046 29.9679C39.8885 30.1498 39.7631 30.2972 39.6283 30.4038C39.4934 30.5104 39.3429 30.5637 39.1704 30.5637C38.8223 30.5731 38.5213 30.4446 38.2641 30.1749C38.0101 29.9052 37.7812 29.5383 37.5805 29.0679C37.3798 28.5975 37.2011 28.0393 37.0443 27.3902C36.8875 26.7411 36.7338 26.0418 36.5802 25.2892C36.5175 24.9662 36.5488 24.7122 36.6743 24.524C36.7997 24.3359 36.9596 24.2167 37.1509 24.1697C37.3422 24.1195 37.5366 24.1477 37.7342 24.2575C37.9317 24.3641 38.0697 24.5585 38.1513 24.8345C38.2391 25.1293 38.3112 25.3927 38.3645 25.6247C38.4178 25.8568 38.4774 26.1045 38.5401 26.3711C38.6028 26.6345 38.6781 26.9387 38.769 27.2836C38.8568 27.6285 38.9791 28.0582 39.1297 28.5787C39.2269 28.124 39.3053 27.7414 39.3648 27.431C39.4244 27.1237 39.4746 26.8414 39.5185 26.5937C39.5624 26.346 39.6063 26.0951 39.6533 25.8505C39.6972 25.6059 39.76 25.3205 39.8415 24.9975C39.8603 24.9003 39.8854 24.8094 39.923 24.7279C39.9763 24.477 40.1049 24.2951 40.3119 24.1791C40.5094 24.0348 40.707 23.9972 40.9077 24.0662C41.1084 24.132 41.2558 24.27 41.3436 24.4739C41.3781 24.5648 41.4063 24.6651 41.4251 24.7812C41.4251 24.8878 41.4126 25.0007 41.3843 25.1167C41.3122 25.3582 41.2464 25.6185 41.1836 25.9007C41.1209 26.1829 41.0551 26.4745 40.9892 26.7725C40.9234 27.0735 40.8544 27.3714 40.7885 27.6724C40.7227 27.9735 40.6474 28.262 40.5659 28.5379C40.4593 28.0801 40.3558 27.5721 40.2586 27.0076C40.1614 26.4432 40.0485 25.8411 39.923 25.1951C39.9042 25.1042 39.8948 25.0226 39.8948 24.9474C39.8948 24.8721 39.9042 24.7969 39.923 24.7247C39.9669 24.5899 40.0265 24.4801 40.0986 24.3892C40.1708 24.2982 40.2429 24.2293 40.3119 24.1759C40.4906 24.0693 40.6819 24.038 40.8889 24.0819C41.0958 24.1258 41.2464 24.2575 41.3436 24.4707C41.3781 24.5617 41.4063 24.662 41.4251 24.778C41.4345 24.8219 41.4502 24.938 41.4721 25.1198C41.4941 25.3049 41.5223 25.5212 41.56 25.7721C41.5944 26.023 41.6352 26.2895 41.6728 26.578C41.7136 26.8634 41.7544 27.1362 41.792 27.3965C41.8328 27.6568 41.8673 27.8857 41.8986 28.0801C41.93 28.2902 41.9551 28.4251 41.9739 28.494Z" fill="#212121"/>
<path d="M51.1149 24.3359C50.955 24.7373 50.8421 25.1513 50.7793 25.5777C50.7166 26.0042 50.6633 26.4307 50.6194 26.8603C50.5755 27.3432 50.5504 27.8199 50.5442 28.2903C50.541 28.7607 50.5724 29.231 50.6445 29.7045C50.679 29.9648 50.6508 30.1248 50.5567 30.1875C50.4626 30.2502 50.2996 30.2596 50.0675 30.2157C49.594 30.0997 49.2773 29.899 49.1142 29.6199C48.9543 29.3376 48.8633 28.93 48.8445 28.3906C48.7003 28.6415 48.5372 28.9049 48.349 29.1809C48.1609 29.4568 47.9539 29.714 47.7313 29.946C47.5431 30.153 47.2923 30.269 46.9787 30.2941C46.6651 30.3223 46.3578 30.269 46.0599 30.1404C45.7588 30.0119 45.4954 29.8143 45.2696 29.5509C45.0407 29.2875 44.9215 28.9708 44.9153 28.6039C44.8808 28.1742 44.887 27.7478 44.9435 27.3213C44.9968 26.8979 45.0972 26.4966 45.2445 26.1202C45.3919 25.7439 45.5895 25.4053 45.8341 25.1011C46.0787 24.7969 46.3734 24.546 46.7121 24.3485C46.9097 24.2419 47.148 24.176 47.4302 24.1541C47.7125 24.1321 47.9884 24.1509 48.2612 24.2136C48.5341 24.2764 48.7755 24.3736 48.9856 24.5021C49.1957 24.6307 49.3337 24.7906 49.3933 24.9788C49.4748 24.8095 49.5626 24.637 49.6536 24.4614C49.7445 24.2858 49.8511 24.1384 49.9703 24.0129C50.033 23.9408 50.1177 23.8906 50.2243 23.8593C50.3309 23.8279 50.4438 23.8185 50.5598 23.8311C50.6759 23.8436 50.7825 23.875 50.8828 23.9251C50.98 23.9753 51.0584 24.038 51.1117 24.1196C51.1306 24.1541 51.1368 24.1917 51.1306 24.2262C51.1306 24.2638 51.1243 24.3014 51.1149 24.3359ZM48.4463 26.9513C48.4557 26.9324 48.4588 26.8979 48.4588 26.8446C48.4149 26.299 48.3459 25.9196 48.2581 25.7032C48.1672 25.4899 48.0668 25.3896 47.9508 25.4084C47.8348 25.4272 47.7156 25.537 47.5964 25.7439C47.4741 25.9509 47.3612 26.1955 47.2546 26.4809C47.148 26.7662 47.0539 27.0735 46.9724 27.3997C46.8909 27.7258 46.8344 28.0206 46.8031 28.2777C46.7717 28.538 46.7748 28.7418 46.8093 28.8955C46.8438 29.0492 46.9254 29.0931 47.0508 29.0303C47.1762 28.9676 47.3518 28.7763 47.5808 28.4533C47.8065 28.1335 48.095 27.6317 48.4463 26.9513Z" fill="#212121"/>
<path d="M53.8213 29.2214C53.8119 29.3468 53.8025 29.4754 53.7868 29.604C53.7743 29.7325 53.7429 29.8517 53.6927 29.9583C53.6426 30.0649 53.5642 30.1559 53.4576 30.2343C53.3509 30.3095 53.2036 30.3566 53.0154 30.3754C52.8272 30.3754 52.6705 30.3754 52.545 30.3754C52.4196 30.3754 52.3161 30.3628 52.2283 30.3346C52.1436 30.3064 52.0746 30.2562 52.0276 30.181C51.9774 30.1057 51.9367 29.9897 51.899 29.8392C51.8802 29.4284 51.8771 29.0458 51.8865 28.6914C51.8959 28.3371 51.9084 27.9514 51.9273 27.5311C51.9273 27.1987 51.9367 26.7723 51.9555 26.2486C51.9743 25.7249 51.9962 25.1824 52.0213 24.6242C52.0496 24.066 52.0746 23.5329 52.1029 23.028C52.1311 22.5232 52.1562 22.1218 52.1844 21.827C52.2377 21.6577 52.2942 21.526 52.3537 21.4382C52.4133 21.3503 52.4823 21.2845 52.567 21.25C52.6516 21.2155 52.7583 21.1998 52.89 21.2092C53.0185 21.2186 53.1879 21.2312 53.3917 21.25C53.6144 21.2688 53.768 21.3284 53.8558 21.4319C53.9405 21.5354 53.9875 21.6483 53.9969 21.7737C53.9969 22.0685 53.9969 22.3225 53.9969 22.5326C53.9969 22.7427 53.9938 22.9465 53.9907 23.1441C53.9844 23.3416 53.9781 23.5455 53.9687 23.7618C53.9593 23.9751 53.9499 24.2259 53.9436 24.5144L53.8213 29.2214Z" fill="#212121"/>
<path d="M56.938 29.2214C56.9286 29.3468 56.9192 29.4754 56.9035 29.604C56.8878 29.7325 56.8596 29.8517 56.8094 29.9583C56.7593 30.0649 56.6809 30.1559 56.5743 30.2343C56.4676 30.3095 56.3202 30.3566 56.1321 30.3754C55.9439 30.3754 55.7871 30.3754 55.6617 30.3754C55.5363 30.3754 55.4328 30.3628 55.345 30.3346C55.2603 30.3064 55.1913 30.2562 55.1443 30.181C55.0941 30.1057 55.0534 29.9897 55.0157 29.8392C54.9969 29.4284 54.9938 29.0458 55.0032 28.6914C55.0126 28.3371 55.0251 27.9514 55.044 27.5311C55.044 27.1987 55.0534 26.7723 55.0722 26.2486C55.091 25.7249 55.1129 25.1824 55.138 24.6242C55.1662 24.066 55.1913 23.5329 55.2196 23.028C55.2478 22.5232 55.2729 22.1218 55.3011 21.827C55.3544 21.6577 55.4108 21.526 55.4704 21.4382C55.53 21.3503 55.599 21.2845 55.6837 21.25C55.7683 21.2155 55.875 21.1998 56.0067 21.2092C56.1352 21.2186 56.3046 21.2312 56.5084 21.25C56.7311 21.2688 56.8847 21.3284 56.9725 21.4319C57.0572 21.5354 57.1042 21.6483 57.1136 21.7737C57.1136 22.0685 57.1136 22.3225 57.1136 22.5326C57.1136 22.7427 57.1105 22.9465 57.1074 23.1441C57.1011 23.3416 57.0948 23.5455 57.0854 23.7618C57.076 23.9751 57.0666 24.2259 57.0603 24.5144L56.938 29.2214Z" fill="#212121"/>
<path d="M60.0395 27.8227C59.9235 27.8039 59.8576 27.7976 59.8451 27.8039C59.8325 27.8101 59.82 27.8509 59.8106 27.9324C59.7667 28.2899 59.798 28.5753 59.9046 28.7854C60.0113 28.9955 60.1712 29.1335 60.3813 29.2025C60.5914 29.2683 60.836 29.2683 61.1119 29.1962C61.3879 29.1241 61.6795 28.983 61.9837 28.7666C62.128 28.6694 62.2879 28.6161 62.4666 28.6129C62.6454 28.6098 62.799 28.638 62.9308 28.707C63.0593 28.7729 63.1471 28.8763 63.191 29.008C63.2349 29.1429 63.2004 29.2997 63.0844 29.4784C62.8241 29.8547 62.5262 30.115 62.1844 30.2624C61.8426 30.4098 61.4475 30.4882 60.9896 30.4976C60.5318 30.507 60.1116 30.4537 59.729 30.3439C59.3433 30.231 59.0109 30.0617 58.7287 29.8328C58.4465 29.6039 58.2269 29.3248 58.0702 28.9955C57.9134 28.6631 57.835 28.2899 57.835 27.8697C57.8444 27.4683 57.8757 27.0952 57.9353 26.7565C57.9949 26.4178 58.089 26.1011 58.2238 25.8095C58.3587 25.5178 58.5343 25.2481 58.7538 24.9973C58.9733 24.7464 59.243 24.5049 59.566 24.2729C59.9423 24.0126 60.3687 23.8652 60.8485 23.8307C61.3283 23.7962 61.7736 23.8558 62.1907 24.0189C62.6078 24.1788 62.9402 24.4359 63.191 24.7903C63.4419 25.1446 63.5266 25.5805 63.445 26.098C63.3823 26.4649 63.2381 26.7722 63.0154 27.023C62.7928 27.2739 62.5231 27.4715 62.2095 27.6126C61.8959 27.7568 61.551 27.8446 61.1684 27.8823C60.7921 27.9136 60.4126 27.8948 60.0395 27.8227ZM61.1245 25.2356C60.8391 25.4426 60.6259 25.6777 60.4879 25.9412C60.3499 26.2046 60.2088 26.515 60.0646 26.8725C60.3154 26.8725 60.5475 26.8537 60.7639 26.8192C60.9771 26.7847 61.1715 26.7189 61.3409 26.6248C61.5102 26.5307 61.6513 26.4021 61.7642 26.2359C61.8771 26.0697 61.9492 25.8596 61.9869 25.5993C61.9963 25.4739 61.9743 25.3704 61.921 25.292C61.8677 25.2105 61.7956 25.1541 61.7078 25.1227C61.6168 25.0913 61.5227 25.0882 61.4193 25.1102C61.3095 25.129 61.2154 25.1729 61.1245 25.2356Z" fill="#212121"/>
<path d="M67.4372 29.234C67.4277 29.3594 67.4183 29.4848 67.4027 29.6103C67.3901 29.7357 67.3588 29.8517 67.3149 29.9583C67.271 30.065 67.1988 30.1559 67.1016 30.2343C67.0044 30.3127 66.8633 30.3566 66.6845 30.3754C66.5058 30.3754 66.3553 30.3754 66.2361 30.3754C66.1138 30.3754 66.0135 30.3629 65.9351 30.3346C65.8535 30.3064 65.7908 30.2562 65.7469 30.181C65.703 30.1057 65.6654 29.9897 65.6403 29.8392C65.6121 29.4378 65.6058 29.0583 65.6215 28.704C65.6372 28.3496 65.6497 27.9671 65.6685 27.5563C65.6685 27.2615 65.6748 26.8883 65.6873 26.443C65.6999 25.9946 65.7156 25.5211 65.7344 25.0193C65.4647 25.0382 65.1856 25.0319 64.8971 25.0068C64.6055 24.9786 64.3326 24.8939 64.0724 24.7528C63.9469 24.7089 63.8654 24.6336 63.8246 24.5239C63.7839 24.4173 63.7807 24.3075 63.8184 24.1946C63.8529 24.0817 63.925 23.972 64.0316 23.8653C64.1382 23.7587 64.2825 23.6835 64.4612 23.6364C64.7215 23.5831 64.9567 23.5392 65.1731 23.5016C65.3863 23.4671 65.5964 23.4295 65.8034 23.395C65.8222 23.0908 65.8379 22.8117 65.8567 22.5577C65.8755 22.3037 65.8912 22.0873 65.91 21.9054C65.9633 21.7361 66.0166 21.6044 66.0636 21.5166C66.1138 21.4288 66.1765 21.366 66.2581 21.3347C66.3396 21.3033 66.4399 21.2908 66.5591 21.2939C66.6814 21.3002 66.8382 21.3096 67.0358 21.3284C67.2427 21.3472 67.387 21.4068 67.4716 21.5103C67.5563 21.6138 67.6034 21.7267 67.6128 21.8521C67.6128 22.1375 67.6096 22.3852 67.6065 22.5984C67.6002 22.8085 67.6002 23.0124 67.6002 23.2099L68.0173 23.1692C68.4375 23.1347 68.7542 23.1786 68.9706 23.304C69.1838 23.4295 69.3124 23.58 69.3532 23.7524C69.3939 23.9249 69.35 24.1005 69.2246 24.2699C69.0992 24.4392 68.9016 24.5458 68.6351 24.5929L67.5344 24.7528L67.4372 29.234Z" fill="#212121"/>
<path d="M46.1448 19.5286C46.1668 19.701 46.148 19.8359 46.0947 19.9362C46.0414 20.0366 45.9567 20.1181 45.8438 20.1777C45.7309 20.2373 45.5898 20.2906 45.4205 20.3376C45.2511 20.3846 45.0724 20.438 44.878 20.5038C44.6867 20.5665 44.5048 20.5414 44.3386 20.4285C44.1724 20.3157 44.0125 20.1495 43.8588 19.9362C43.7051 19.7198 43.564 19.469 43.4386 19.1836C43.31 18.8982 43.1909 18.6066 43.0842 18.3118C42.9745 18.0171 42.871 17.738 42.7738 17.4746C42.6766 17.2111 42.5888 16.9979 42.5166 16.8317C42.432 16.5746 42.247 16.4773 41.9585 16.5369C41.5038 16.6592 41.0992 16.7596 40.7417 16.8442C40.3843 16.9289 39.986 17.0418 39.547 17.1892C39.4215 17.2456 39.3181 17.2864 39.2428 17.3178C39.1644 17.346 39.1048 17.3836 39.0546 17.4307C39.0076 17.4777 38.97 17.5404 38.948 17.6251C38.9229 17.7097 38.901 17.8195 38.879 17.9543C38.8414 18.2115 38.8038 18.4435 38.763 18.6505C38.7191 18.8575 38.6846 19.0582 38.6532 19.2557C38.625 19.4533 38.5937 19.6603 38.5686 19.8766C38.5404 20.093 38.5153 20.3313 38.4933 20.5885C38.4588 20.8738 38.3522 21.0933 38.1703 21.2501C37.9884 21.4069 37.7815 21.4759 37.5526 21.4634C37.4334 21.4634 37.2985 21.4665 37.1512 21.4728C37.0038 21.4759 36.8627 21.4665 36.7278 21.4446C36.5898 21.4226 36.4738 21.3787 36.3797 21.316C36.2857 21.2533 36.2355 21.1498 36.2324 21.0024C36.2041 20.6449 36.2041 20.2122 36.2386 19.7073C36.27 19.2024 36.3202 18.6725 36.3891 18.1143C36.455 17.5561 36.5365 16.9885 36.6275 16.4084C36.7184 15.8282 36.8125 15.2794 36.9097 14.7589C37.032 14.0878 37.1386 13.4795 37.2327 12.9338C37.3268 12.3882 37.4303 11.8519 37.5431 11.3314C37.6529 10.8077 37.7815 10.2777 37.9226 9.7415C38.0668 9.20213 38.2393 8.61885 38.4463 7.99168C38.5153 7.79412 38.6532 7.63733 38.8602 7.5213C39.0672 7.40214 39.2867 7.30806 39.5187 7.24221C39.7508 7.17322 39.9672 7.12932 40.1647 7.10423C40.3623 7.07914 40.4815 7.07287 40.5222 7.08228C40.7637 7.07914 40.9738 7.09796 41.1525 7.13559C41.3313 7.17322 41.4975 7.24848 41.6511 7.35823C41.8048 7.46799 41.9396 7.62165 42.0588 7.82234C42.1748 8.02304 42.294 8.27391 42.41 8.58122L46.1448 19.5286ZM41.2435 14.1568C41.4222 14.0815 41.5383 14.0314 41.5978 14.0031C41.6543 13.9749 41.6574 13.8526 41.6041 13.63C41.4254 13.0498 41.256 12.4979 41.093 11.9742C40.9299 11.4505 40.7543 10.9143 40.5693 10.3624C40.5316 10.2589 40.4846 10.1711 40.4376 10.0958C40.3874 10.0206 40.3498 9.98609 40.3247 9.98923C40.2839 9.99237 40.2494 10.0457 40.2212 10.1429C40.193 10.2401 40.1616 10.3248 40.1302 10.3938C40.0174 10.7826 39.9233 11.137 39.8574 11.46C39.7884 11.7829 39.7289 12.1091 39.6724 12.4352C39.6191 12.7613 39.5626 13.1 39.5031 13.4481C39.4466 13.7962 39.3745 14.1882 39.293 14.6272C39.5532 14.5707 39.7696 14.5237 39.939 14.4892C40.1083 14.4547 40.262 14.4202 40.3968 14.3826C40.5316 14.345 40.6633 14.3105 40.7856 14.276C40.9079 14.2477 41.0616 14.2038 41.2435 14.1568Z" fill="#212121"/>
<path d="M49.9798 16.8694C49.9892 17.0575 49.9955 17.2457 49.9986 17.4401C50.0018 17.6345 49.9767 17.8132 49.9234 17.9826C49.8701 18.1488 49.7697 18.2993 49.6255 18.4279C49.4812 18.5596 49.2711 18.6537 48.9983 18.7132C48.7223 18.7477 48.4903 18.776 48.3053 18.7979C48.1202 18.8199 47.9634 18.8199 47.8317 18.7948C47.7 18.7697 47.5934 18.707 47.5056 18.6035C47.4209 18.5 47.3363 18.3401 47.2579 18.1206C47.1575 17.5185 47.0854 16.954 47.0352 16.4303C46.9851 15.9066 46.938 15.3359 46.8878 14.7119C46.8283 14.2227 46.7655 13.5924 46.6997 12.8178C46.6338 12.0432 46.5711 11.2405 46.5115 10.4126C46.452 9.58472 46.3955 8.79448 46.3485 8.04501C46.2983 7.29554 46.2669 6.69972 46.2544 6.2607C46.3046 6.00042 46.3642 5.79973 46.4331 5.65548C46.5021 5.51436 46.5962 5.40774 46.7154 5.34189C46.8345 5.2729 46.9913 5.23527 47.1826 5.22586C47.377 5.21645 47.6248 5.20705 47.9321 5.1945C48.2645 5.18196 48.5028 5.24154 48.6471 5.37952C48.7913 5.5175 48.8791 5.67743 48.9168 5.85931C48.9701 6.29519 49.014 6.66836 49.0516 6.97568C49.0892 7.28299 49.1206 7.58717 49.1488 7.87881C49.177 8.17045 49.2021 8.47462 49.2272 8.79135C49.2523 9.10807 49.2837 9.48124 49.3213 9.90458L49.9798 16.8694Z" fill="#212121"/>
<path d="M54.1568 17.9293C54.1379 18.1143 54.1191 18.3056 54.094 18.4968C54.069 18.6881 54.0188 18.8637 53.9435 19.0237C53.8683 19.1805 53.7491 19.3153 53.586 19.4251C53.423 19.5348 53.2035 19.6007 52.9244 19.6195C52.6453 19.6132 52.4132 19.6101 52.2282 19.6038C52.0432 19.6007 51.8864 19.5756 51.761 19.5348C51.6355 19.4909 51.5383 19.4125 51.4662 19.2996C51.3941 19.1867 51.3345 19.0143 51.2874 18.7885C51.2749 18.177 51.278 17.6094 51.3031 17.0857C51.3282 16.562 51.3596 15.9881 51.4003 15.3641C51.4097 14.8718 51.438 14.2383 51.4787 13.4606C51.5226 12.6829 51.5728 11.8802 51.6293 11.0523C51.6857 10.2244 51.7421 9.43418 51.7986 8.6847C51.855 7.93523 51.9052 7.34255 51.9554 6.90353C52.0401 6.65266 52.1279 6.46137 52.2157 6.32966C52.3035 6.19796 52.4132 6.10702 52.5387 6.05684C52.6672 6.00667 52.8272 5.98785 53.0184 6.00667C53.2097 6.02235 53.4606 6.05057 53.7648 6.08193C54.0972 6.11642 54.323 6.2105 54.4453 6.36416C54.5676 6.52095 54.6334 6.69029 54.6428 6.87531C54.6334 7.31433 54.624 7.6875 54.6177 8.00108C54.6115 8.31153 54.6021 8.61571 54.5895 8.90735C54.577 9.19899 54.5613 9.50317 54.5393 9.82302C54.5174 10.1397 54.4986 10.5129 54.4766 10.9363L54.1568 17.9293Z" fill="#212121"/>
<path d="M59.1306 15.8785C58.955 15.8722 58.8578 15.8753 58.839 15.8848C58.8202 15.8942 58.8107 15.96 58.8107 16.0792C58.8076 16.6154 58.9048 17.0293 59.0992 17.3178C59.2937 17.6095 59.5539 17.7851 59.8769 17.8478C60.1999 17.9105 60.5574 17.8635 60.9557 17.7098C61.3539 17.5562 61.7553 17.2928 62.1661 16.9227C62.3606 16.7534 62.5863 16.6499 62.8498 16.6091C63.1132 16.5715 63.3452 16.5903 63.5491 16.6656C63.7529 16.7408 63.8971 16.8757 63.9881 17.0638C64.079 17.252 64.0539 17.4903 63.9128 17.7757C63.5961 18.3746 63.201 18.8137 62.7275 19.0928C62.2508 19.3718 61.6801 19.5569 61.009 19.6509C60.3379 19.745 59.7076 19.745 59.1212 19.6478C58.5348 19.5506 58.0111 19.3593 57.5564 19.0739C57.1017 18.7886 56.7285 18.4123 56.4369 17.9544C56.1484 17.4935 55.9665 16.9541 55.8913 16.3332C55.8317 15.7374 55.816 15.1855 55.8411 14.6743C55.8662 14.1632 55.954 13.6802 56.0982 13.2287C56.2456 12.7771 56.4557 12.3475 56.7348 11.9367C57.0139 11.529 57.3714 11.1245 57.8041 10.7231C58.3121 10.2747 58.9174 9.97991 59.6167 9.84193C60.316 9.70395 60.987 9.7165 61.6299 9.87956C62.2728 10.0426 62.809 10.3656 63.2417 10.8423C63.6745 11.3189 63.8752 11.9461 63.8501 12.7269C63.8219 13.2788 63.6651 13.7586 63.3797 14.1694C63.0943 14.5771 62.7337 14.9158 62.2978 15.1823C61.862 15.4489 61.3665 15.6433 60.8114 15.7625C60.2595 15.8753 59.6982 15.9161 59.1306 15.8785ZM60.2752 11.8646C59.8895 12.2189 59.6167 12.6046 59.4599 13.0154C59.3031 13.4294 59.1494 13.9123 59.002 14.4642C59.3721 14.4203 59.7107 14.3513 60.0212 14.2604C60.3316 14.1694 60.6045 14.0409 60.8365 13.8715C61.0717 13.7022 61.2567 13.4858 61.3916 13.2224C61.5264 12.959 61.5985 12.6329 61.6048 12.244C61.5954 12.059 61.5452 11.9116 61.4512 11.8019C61.3571 11.6921 61.241 11.6231 61.1062 11.5917C60.9682 11.5604 60.8271 11.5729 60.6797 11.6231C60.5323 11.6764 60.3975 11.7579 60.2752 11.8646Z" fill="#212121"/>
<path d="M68.632 10.1428C68.7355 9.9202 68.9017 9.71951 69.1369 9.53449C69.3689 9.35261 69.6355 9.19895 69.9334 9.07979C70.2313 8.96063 70.5417 8.87596 70.8616 8.82892C71.1846 8.78188 71.4794 8.78502 71.749 8.83519C72.0187 8.88537 72.2445 8.98885 72.4233 9.14251C72.602 9.29617 72.6992 9.51254 72.7149 9.79163C72.7149 10.1366 72.6271 10.3937 72.4546 10.5599C72.2821 10.7261 71.9874 10.8672 71.5672 10.9801C71.0686 11.1056 70.6233 11.2561 70.2313 11.4317C69.8393 11.6073 69.5006 11.8582 69.2215 12.1874C68.9424 12.5167 68.7166 12.9306 68.5504 13.4355C68.3842 13.9404 68.2776 14.577 68.2306 15.3484C68.2337 15.5491 68.218 15.7592 68.1836 15.985C68.1459 16.2108 68.0863 16.4146 67.9985 16.6059C67.9107 16.794 67.7853 16.954 67.6191 17.0794C67.4529 17.2048 67.2459 17.2613 66.9951 17.2519C66.8884 17.2487 66.7661 17.2456 66.625 17.2456C66.487 17.2456 66.3522 17.208 66.2205 17.1296C66.0919 17.0512 65.979 16.9226 65.8881 16.747C65.7972 16.5714 65.7376 16.308 65.7125 15.9599C65.7062 15.8 65.6999 15.5491 65.6937 15.201C65.6874 14.8561 65.6874 14.4672 65.6937 14.0345C65.6999 13.6017 65.7093 13.1376 65.7219 12.639C65.7344 12.1404 65.7595 11.6606 65.794 11.1965C65.8254 10.7324 65.8693 10.3028 65.9195 9.90452C65.9696 9.50627 66.0323 9.177 66.1107 8.91672C66.1421 8.77247 66.1985 8.61568 66.2801 8.44634C66.3616 8.27701 66.4557 8.11708 66.5686 7.96969C66.6815 7.8223 66.8132 7.70001 66.9637 7.60593C67.1142 7.51185 67.2679 7.46795 67.4278 7.47736C67.8668 7.44286 68.1773 7.51185 68.356 7.68746C68.5348 7.85994 68.6445 8.08885 68.6853 8.36795C68.7261 8.65018 68.7261 8.95122 68.6853 9.27735C68.6508 9.60348 68.632 9.89198 68.632 10.1428Z" fill="#212121"/>
<path d="M75.9484 22.3886C75.7916 23.0126 75.5407 23.5175 75.1926 23.9032C74.8445 24.2889 74.462 24.5649 74.048 24.728C73.6341 24.891 73.2076 24.9506 72.7717 24.9036C72.3358 24.8565 71.9407 24.7091 71.5895 24.4583C71.2383 24.2074 70.9592 23.8593 70.7522 23.414C70.5453 22.9687 70.4669 22.4262 70.517 21.7896C70.5829 21.2346 70.7898 20.7736 71.1379 20.4004C71.4829 20.0273 71.8623 19.7137 72.2763 19.4534C72.6902 19.1963 73.0759 18.9862 73.4365 18.82C73.7972 18.6569 74.0261 18.5064 74.1233 18.3715C74.1735 18.2963 74.1891 18.2492 74.1703 18.2273C74.1546 18.2053 74.1201 18.1991 74.0731 18.2053C74.0261 18.2116 73.9728 18.2304 73.9163 18.2555C73.8599 18.2806 73.8097 18.3057 73.7658 18.3276C73.4836 18.4531 73.1543 18.5471 72.778 18.6099C72.4017 18.6726 72.0285 18.6851 71.6585 18.6538C71.2885 18.6224 70.9372 18.5283 70.608 18.3747C70.2787 18.221 70.0247 18.0015 69.846 17.7099C69.6233 17.3336 69.5104 16.951 69.5041 16.5559C69.4979 16.1607 69.5324 15.7782 69.6014 15.4144C69.8742 14.1507 70.47 13.1503 71.3888 12.4197C71.7306 12.1531 72.0693 11.9838 72.4142 11.9116C72.756 11.8395 73.1041 11.8332 73.4491 11.896C73.7971 11.9587 74.1421 12.059 74.487 12.2033C74.832 12.3444 75.1801 12.4981 75.5376 12.6611C75.5877 12.5859 75.6065 12.5294 75.5971 12.4886C75.6881 12.1782 75.7853 11.9367 75.8856 11.7611C75.986 11.5855 76.1114 11.4695 76.2588 11.4068C76.4062 11.3441 76.5849 11.3346 76.795 11.3817C77.002 11.4287 77.2529 11.5197 77.5445 11.6639C77.7483 11.7548 77.855 11.8709 77.8644 12.012C77.8738 12.1531 77.8675 12.3036 77.8487 12.4604L75.9484 22.3886ZM74.4745 15.1416C74.5874 14.8876 74.6062 14.6681 74.5341 14.4862C74.462 14.3043 74.3397 14.1162 74.1609 13.9186C73.8066 13.6489 73.4522 13.6332 73.101 13.8716C72.6996 14.2102 72.3766 14.5959 72.1383 15.0287C71.8968 15.4614 71.7808 15.9318 71.7871 16.443C71.7965 16.5904 71.809 16.7503 71.831 16.9196C71.8498 17.089 71.9282 17.2144 72.0662 17.2991C72.2418 17.3869 72.408 17.3837 72.5585 17.2897C72.7121 17.1956 72.847 17.1078 72.963 17.0263C73.2923 16.7315 73.5776 16.4336 73.8128 16.1357C74.0512 15.8378 74.2707 15.5054 74.4745 15.1416ZM73.5243 22.6771C73.7125 22.2318 73.8348 21.7928 73.8944 21.3569C73.9539 20.9241 74.0041 20.5729 74.0512 20.3126C73.8944 20.4004 73.6749 20.5604 73.3989 20.7956C73.1229 21.0308 72.8846 21.2879 72.6839 21.5733C72.4832 21.8555 72.3735 22.1314 72.3547 22.3949C72.3358 22.6614 72.5052 22.8621 72.8627 22.9969C73.0038 23.0408 73.1355 23.0346 73.2578 22.975C73.3769 22.9154 73.4647 22.8151 73.5243 22.6771Z" fill="#212121"/>
<path d="M83.0602 19.7951C82.3421 20.2279 81.6992 20.4599 81.1285 20.4882C80.5578 20.5164 80.078 20.3941 79.686 20.1244C79.2909 19.8547 78.9898 19.4596 78.7766 18.939C78.5634 18.4216 78.4536 17.8321 78.4505 17.1735C78.4442 16.515 78.5508 15.8094 78.764 15.0631C78.9773 14.3136 79.3128 13.5704 79.7707 12.8241C79.9808 12.4885 80.2567 12.2941 80.6048 12.2408C80.9529 12.1875 81.2696 12.2377 81.5644 12.3913C81.856 12.545 82.0787 12.777 82.2355 13.0875C82.3922 13.3979 82.3797 13.7398 82.1978 14.1161C81.972 14.5864 81.7588 15.0506 81.5581 15.5084C81.3574 15.9662 81.2069 16.377 81.1065 16.7439C81.0062 17.1077 80.9623 17.4181 80.978 17.669C80.9936 17.9199 81.0971 18.0673 81.2884 18.1174C81.5017 18.1896 81.7713 18.1206 82.0912 17.9105C82.4111 17.7035 82.756 17.4213 83.126 17.0669C83.4961 16.7126 83.8786 16.3237 84.28 15.8972C84.6814 15.4708 85.064 15.0725 85.4309 14.7056C85.7978 14.3387 86.1427 14.0283 86.4626 13.7774C86.7825 13.5265 87.049 13.4011 87.2591 13.4011C87.4285 13.4011 87.5852 13.4481 87.7389 13.5391C87.8894 13.63 88.0117 13.7617 88.1058 13.9248C88.1999 14.0878 88.2532 14.2854 88.2657 14.5143C88.2814 14.7432 88.2375 14.9878 88.1372 15.2481C87.6605 16.3927 87.1933 17.4307 86.7354 18.362C86.2776 19.2965 85.8009 20.1714 85.3055 20.9962C84.8069 21.8178 84.2769 22.6143 83.7124 23.3857C83.148 24.1571 82.5208 24.9474 81.8341 25.7533C81.4484 26.1986 81.0438 26.3867 80.6173 26.3146C80.194 26.2425 79.8114 25.9822 79.4696 25.5338C79.4226 25.4616 79.4069 25.377 79.4194 25.2766C79.432 25.1763 79.4602 25.0791 79.5041 24.9881C79.548 24.8972 79.595 24.8125 79.6421 24.731C79.6891 24.6495 79.7299 24.5773 79.7644 24.5209C80.147 24.0442 80.4574 23.646 80.6989 23.3198C80.9403 22.9937 81.1661 22.6833 81.3762 22.3885C81.5863 22.0937 81.8121 21.777 82.0504 21.4352C82.2888 21.0934 82.5929 20.67 82.9567 20.162C83.01 20.0805 83.057 19.9896 83.0915 19.8798C83.1323 19.7732 83.1198 19.745 83.0602 19.7951Z" fill="#212121"/>
</g>
<defs>
<clipPath id="clip0_1827_2479">
<rect width="88.8889" height="32" fill="white"/>
</clipPath>
</defs>
</svg>
